<svg width="24" height="24" viewBox="-5 -5 320 315" xmlns="http://www.w3.org/2000/svg">
            <defs>
              <linearGradient id="orS1" x1="0%" y1="0%" x2="0%" y2="100%">
                <stop offset="0%" stop-color="#1a5276"></stop>
                <stop offset="100%" stop-color="#2980b9"></stop>
              </linearGradient>
              <linearGradient id="orS2" x1="0%" y1="0%" x2="100%" y2="100%">
                <stop offset="0%" stop-color="#2471a3"></stop>
                <stop offset="100%" stop-color="#7fb3d5"></stop>
              </linearGradient>
              <linearGradient id="orS3" x1="0%" y1="0%" x2="0%" y2="100%">
                <stop offset="0%" stop-color="#5dade2"></stop>
                <stop offset="100%" stop-color="#aed6f1"></stop>
              </linearGradient>
            </defs>
            <path d="M0 0L70 0L70 50L0 100Z" fill="url(#orS1)"></path>
            <path d="M0 110L70 60L70 140L0 190Z" fill="url(#orS2)"></path>
            <path d="M0 200L70 150L70 300L0 300Z" fill="url(#orS3)" opacity="0.7"></path>
            <path d="M80 0L180 0C230 0 260 40 260 85C260 110 245 130 220 145L80 45Z" fill="url(#orS1)"></path>
            <path d="M80 55L210 150L230 150C250 150 260 140 260 120L80 120Z" fill="url(#orS2)"></path>
            <path d="M120 150L200 150L280 300L200 300Z" fill="url(#orS3)"></path>
            <g fill="#aed6f1" opacity="0.5">
              <circle cx="285" cy="295" r="5"></circle>
              <circle cx="298" cy="283" r="3"></circle>
            </g>
          </svg>
